<?xml version="1.0" encoding="utf-8"?>
<svg xmlns="http://www.w3.org/2000/svg" height="48" width="48" viewBox="0 0 48 48">
  <g>
    <path id="path1" transform="rotate(0,24,24) translate(0,4.87500143051147) scale(1.5,1.5)  " fill="#3482E2" d="M16.199967,8.1999993C19.599988,8.1999993 22.399972,11.000001 22.399972,14.399995 22.399972,17.799996 19.599988,20.599999 16.199967,20.599999 12.800007,20.599999 10.000021,17.799996 10.000021,14.399995 10.000021,13.899995 10.099996,13.299997 10.199972,12.799997 10.699972,14.000001 11.899982,14.799997 13.300006,14.799997 15.199967,14.799997 16.699965,13.299997 16.699965,11.399995 16.699965,10.000002 15.899978,8.7999978 14.699968,8.2999978 15.199967,8.1999993 15.699967,8.1999993 16.199967,8.1999993z M16.199967,5.6999998C11.399983,5.6999998 7.5000235,9.6000009 7.5000235,14.399995 7.5000235,19.199997 11.399983,23.099999 16.199967,23.099999 21.00001,23.099999 24.89997,19.199997 24.89997,14.399995 24.89997,9.6000009 21.00001,5.6999998 16.199967,5.6999998z M3.200009,5.4000006C2.4999976,5.4000006 1.999998,5.999999 1.999998,6.5999975 1.999998,7.1999993 2.4999976,7.6999993 3.1000034,7.6999993 3.6999781,7.6999993 4.1999776,7.1999993 4.1999776,6.5999975 4.3000142,5.999999 3.8000147,5.4000006 3.200009,5.4000006z M10.800008,0L21.399974,0C22.399972,4.9414894E-08,23.199959,0.79999911,23.199959,1.7999988L23.500008,3.599998 23.500008,3.6999998 32.000001,3.6999998 32.000001,25.499999 0,25.499999 0,3.599998 8.5999982,3.599998 8.5999982,3.4999995 9.0000216,1.7000003C9.0999972,0.79999911,9.8000094,4.9414894E-08,10.800008,0z" />
  </g>
</svg>
